<?xml version="1.0" standalone="no"?>
<!DOCTYPE svg PUBLIC "-//W3C//DTD SVG 20010904//EN"
 "http://www.w3.org/TR/2001/REC-SVG-20010904/DTD/svg10.dtd">
<svg version="1.0" xmlns="http://www.w3.org/2000/svg"
 width="252.000000pt" height="252.000000pt" viewBox="0 0 252.000000 252.000000"
 preserveAspectRatio="xMidYMid meet">
<metadata>
Created by potrace 1.16, written by Peter Selinger 2001-2019
</metadata>
<g transform="translate(0.000000,252.000000) scale(0.100000,-0.100000)"
fill="#000000" stroke="none">
<path d="M1760 1769 c-19 -5 -96 -39 -170 -74 -187 -89 -230 -99 -420 -99
-177 1 -238 12 -393 74 -55 22 -108 40 -118 40 -49 0 -152 -79 -184 -140 l-13
-26 66 4 c83 4 127 -16 159 -72 l21 -40 8 40 c4 21 12 42 18 46 6 4 50 8 99 8
l87 0 0 -45 c0 -40 2 -45 23 -45 12 0 44 7 71 15 27 8 64 15 81 15 19 0 39 8
50 20 13 15 31 20 67 20 35 0 58 6 75 20 21 16 41 20 101 20 64 0 79 3 99 22
24 22 50 28 206 44 l57 6 0 43 c0 52 5 55 114 55 111 0 113 -3 118 -148 2 -95
6 -115 21 -123 13 -8 17 -23 17 -64 0 -71 -19 -85 -112 -85 -62 0 -68 -2 -68
-20 0 -80 -120 -180 -216 -180 -36 0 -36 0 -20 -25 9 -14 16 -45 16 -74 0 -48
-1 -49 -43 -69 -63 -30 -194 -72 -222 -72 -20 0 -25 -5 -25 -25 0 -31 0 -31
86 -1 178 61 327 151 460 278 236 226 288 419 154 571 -69 79 -177 113 -270
86z"/>
<path d="M412 1406 c-17 -82 -15 -130 8 -222 65 -252 216 -387 475 -423 76
-11 219 -1 328 23 54 12 57 14 25 15 -24 1 -41 7 -47 19 -8 13 -13 14 -19 4
-6 -9 -46 -12 -163 -10 l-154 3 0 108 c0 93 -2 108 -17 113 -10 3 -18 10 -18
16 0 6 -11 -1 -25 -16 -21 -23 -31 -26 -87 -25 -35 0 -81 3 -103 7 l-40 7 -41
125 c-22 69 -54 150 -70 180 -16 30 -31 73 -34 95 l-5 40 -13 -59z"/>
</g>
</svg>
